<svg id="Capa_1" enable-background="new 0 0 512 512" height="512" viewBox="0 0 512 512" width="512" xmlns="http://www.w3.org/2000/svg" transform="rotate(125)" fill="rgba(12,49,78,0.8)"><g><path d="m492.453 124.059c-24.873-18.286-52.011-33.703-80.661-45.818-49.347-20.871-101.595-31.455-155.295-31.455-53.701 0-105.95 10.583-155.296 31.457-29.118 12.316-56.65 28.024-81.834 46.687-21.227 15.733-25.698 45.802-9.966 67.029 15.557 20.992 45.532 25.9 67.031 9.967 50.121-37.144 112.895-59.303 180.065-59.303 66.122 0 128.652 21.497 179.188 58.65 21.34 15.688 51.303 11.118 66.99-10.223 15.687-21.336 11.119-51.302-10.222-66.991z"/><path d="m431.235 251.016c-47.609-38.905-108.837-62.213-174.738-62.213-65.748 0-127.387 23.258-175.414 62.762-20.404 16.786-23.347 47.044-6.563 67.448 16.995 20.662 47.229 23.195 67.448 6.567 30.934-25.447 71.061-40.939 114.529-40.939 43.32 0 83.26 15.387 114.093 40.586 20.506 16.758 50.667 13.728 67.427-6.783 16.758-20.511 13.726-50.667-6.782-67.428z"/></g></svg>